grf
version=1
nRows=14
nColumns=46
inDegrees=yes
endheader
time	ground_force_1_vx	ground_force_1_vy	ground_force_1_vz	ground_force_1_px	ground_force_1_py	ground_force_1_pz	ground_moment_1_mx	ground_moment_1_my	ground_moment_1_mz	ground_force_2_vx	ground_force_2_vy	ground_force_2_vz	ground_force_2_px	ground_force_2_py	ground_force_2_pz	ground_moment_2_mx	ground_moment_2_my	ground_moment_2_mz	ground_force_3_vx	ground_force_3_vy	ground_force_3_vz	ground_force_3_px	ground_force_3_py	ground_force_3_pz	ground_moment_3_mx	ground_moment_3_my	ground_moment_3_mz	ground_force_4_vx	ground_force_4_vy	ground_force_4_vz	ground_force_4_px	ground_force_4_py	ground_force_4_pz	ground_moment_4_mx	ground_moment_4_my	ground_moment_4_mz	ground_force_5_vx	ground_force_5_vy	ground_force_5_vz	ground_force_5_px	ground_force_5_py	ground_force_5_pz	ground_moment_5_mx	ground_moment_5_my	ground_moment_5_mz
2.255000	0.000000	0.000000	0.000000	0.000000	0.000000	0.000000	0.000000	0.000000	0.000000	0.000000	0.000000	0.000000	0.000000	0.000000	0.000000	0.000000	0.000000	0.000000	0.000000	0.000000	0.000000	0.000000	0.000000	0.000000	0.000000	0.000000	0.000000	-4.992049	527.328268	-27.699438	0.220089	0.000000	-1.074449	0.000000	3.280070	0.000000	-5.085534	517.328392	21.645753	0.231070	0.000000	-1.398805	-0.000000	-2.824557	-0.000000
2.255500	0.000000	0.000000	0.000000	0.000000	0.000000	0.000000	0.000000	0.000000	0.000000	0.000000	0.000000	0.000000	0.000000	0.000000	0.000000	0.000000	0.000000	0.000000	0.000000	0.000000	0.000000	0.000000	0.000000	0.000000	0.000000	0.000000	0.000000	-4.948688	527.763291	-27.748470	0.220057	0.000000	-1.074466	0.000000	3.271133	0.000000	-4.999881	517.709187	21.722438	0.231002	0.000000	-1.398786	-0.000000	-2.817373	-0.000000
2.256000	0.000000	0.000000	0.000000	0.000000	0.000000	0.000000	0.000000	0.000000	0.000000	0.000000	0.000000	0.000000	0.000000	0.000000	0.000000	0.000000	0.000000	0.000000	0.000000	0.000000	0.000000	0.000000	0.000000	0.000000	0.000000	0.000000	0.000000	-4.903485	528.203953	-27.797710	0.220025	0.000000	-1.074484	0.000000	3.262149	0.000000	-4.911322	518.095856	21.799035	0.230932	0.000000	-1.398767	-0.000000	-2.810178	-0.000000
2.256500	0.000000	0.000000	0.000000	0.000000	0.000000	0.000000	0.000000	0.000000	0.000000	0.000000	0.000000	0.000000	0.000000	0.000000	0.000000	0.000000	0.000000	0.000000	0.000000	0.000000	0.000000	0.000000	0.000000	0.000000	0.000000	0.000000	0.000000	-4.856455	528.650015	-27.847171	0.219992	0.000000	-1.074501	0.000000	3.253122	0.000000	-4.819902	518.488236	21.875521	0.230862	0.000000	-1.398747	-0.000000	-2.802968	-0.000000
2.257000	0.000000	0.000000	0.000000	0.000000	0.000000	0.000000	0.000000	0.000000	0.000000	0.000000	0.000000	0.000000	0.000000	0.000000	0.000000	0.000000	0.000000	0.000000	0.000000	0.000000	0.000000	0.000000	0.000000	0.000000	0.000000	0.000000	0.000000	-4.807613	529.101219	-27.896861	0.219958	0.000000	-1.074519	0.000000	3.244057	0.000000	-4.725669	518.886157	21.951878	0.230791	0.000000	-1.398727	-0.000000	-2.795739	-0.000000
2.257500	0.000000	0.000000	0.000000	0.000000	0.000000	0.000000	0.000000	0.000000	0.000000	0.000000	0.000000	0.000000	0.000000	0.000000	0.000000	0.000000	0.000000	0.000000	0.000000	0.000000	0.000000	0.000000	0.000000	0.000000	0.000000	0.000000	0.000000	-4.756978	529.557274	-27.946784	0.219923	0.000000	-1.074537	0.000000	3.234955	0.000000	-4.628674	519.289436	22.028092	0.230719	0.000000	-1.398706	-0.000000	-2.788487	-0.000000
2.258000	0.000000	0.000000	0.000000	0.000000	0.000000	0.000000	0.000000	0.000000	0.000000	0.000000	0.000000	0.000000	0.000000	0.000000	0.000000	0.000000	0.000000	0.000000	0.000000	0.000000	0.000000	0.000000	0.000000	0.000000	0.000000	0.000000	0.000000	-4.704574	530.017851	-27.996940	0.219888	0.000000	-1.074555	0.000000	3.225823	0.000000	-4.528975	519.697868	22.104156	0.230646	0.000000	-1.398685	-0.000000	-2.781207	-0.000000
2.258500	0.000000	0.000000	0.000000	0.000000	0.000000	0.000000	0.000000	0.000000	0.000000	0.000000	0.000000	0.000000	0.000000	0.000000	0.000000	0.000000	0.000000	0.000000	0.000000	0.000000	0.000000	0.000000	0.000000	0.000000	0.000000	0.000000	0.000000	-4.650431	530.482578	-28.047325	0.219852	0.000000	-1.074574	0.000000	3.216666	0.000000	-4.426636	520.111229	22.180067	0.230572	0.000000	-1.398664	-0.000000	-2.773893	-0.000000
2.259000	0.000000	0.000000	0.000000	0.000000	0.000000	0.000000	0.000000	0.000000	0.000000	0.000000	0.000000	0.000000	0.000000	0.000000	0.000000	0.000000	0.000000	0.000000	0.000000	0.000000	0.000000	0.000000	0.000000	0.000000	0.000000	0.000000	0.000000	-4.594587	530.951054	-28.097929	0.219816	0.000000	-1.074592	0.000000	3.207490	0.000000	-4.321726	520.529270	22.255826	0.230497	0.000000	-1.398642	-0.000000	-2.766540	-0.000000
2.259500	0.000000	0.000000	0.000000	0.000000	0.000000	0.000000	0.000000	0.000000	0.000000	0.000000	0.000000	0.000000	0.000000	0.000000	0.000000	0.000000	0.000000	0.000000	0.000000	0.000000	0.000000	0.000000	0.000000	0.000000	0.000000	0.000000	0.000000	-4.537087	531.422867	-28.148739	0.219779	0.000000	-1.074611	0.000000	3.198304	0.000000	-4.214323	520.951725	22.331440	0.230422	0.000000	-1.398619	-0.000000	-2.759141	-0.000000
2.260000	0.000000	0.000000	0.000000	0.000000	0.000000	0.000000	0.000000	0.000000	0.000000	0.000000	0.000000	0.000000	0.000000	0.000000	0.000000	0.000000	0.000000	0.000000	0.000000	0.000000	0.000000	0.000000	0.000000	0.000000	0.000000	0.000000	0.000000	-4.477985	531.897607	-28.199737	0.219742	0.000000	-1.074630	0.000000	3.189115	0.000000	-4.104503	521.378307	22.406920	0.230345	0.000000	-1.398596	-0.000000	-2.751686	-0.000000
2.260500	0.000000	0.000000	0.000000	0.000000	0.000000	0.000000	0.000000	0.000000	0.000000	0.000000	0.000000	0.000000	0.000000	0.000000	0.000000	0.000000	0.000000	0.000000	0.000000	0.000000	0.000000	0.000000	0.000000	0.000000	0.000000	0.000000	0.000000	-4.417337	532.374861	-28.250900	0.219705	0.000000	-1.074649	0.000000	3.179931	0.000000	-3.992350	521.808717	22.482279	0.230268	0.000000	-1.398573	-0.000000	-2.744169	-0.000000
2.261000	0.000000	0.000000	0.000000	0.000000	0.000000	0.000000	0.000000	0.000000	0.000000	0.000000	0.000000	0.000000	0.000000	0.000000	0.000000	0.000000	0.000000	0.000000	0.000000	0.000000	0.000000	0.000000	0.000000	0.000000	0.000000	0.000000	0.000000	-4.355212	532.854209	-28.302202	0.219667	0.000000	-1.074668	0.000000	3.170759	0.000000	-3.877953	522.242645	22.557533	0.230191	0.000000	-1.398549	-0.000000	-2.736581	-0.000000
2.261500	0.000000	0.000000	0.000000	0.000000	0.000000	0.000000	0.000000	0.000000	0.000000	0.000000	0.000000	0.000000	0.000000	0.000000	0.000000	0.000000	0.000000	0.000000	0.000000	0.000000	0.000000	0.000000	0.000000	0.000000	0.000000	0.000000	0.000000	-4.291681	533.335220	-28.353616	0.219629	0.000000	-1.074687	0.000000	3.161608	0.000000	-3.761404	522.679770	22.632697	0.230112	0.000000	-1.398524	-0.000000	-2.728915	-0.000000
